<svg id="Котик" xmlns="http://www.w3.org/2000/svg" width="1656" height="974" viewBox="0 0 1656 974">
  <defs>
    <style>
      .cls-1, .cls-4 {
        fill: #242221;
      }

      .cls-1, .cls-2 {
        stroke: #636363;
        stroke-width: 1px;
      }

      .cls-1, .cls-2, .cls-3, .cls-4 {
        fill-rule: evenodd;
      }

      .cls-2 {
        fill: #fff;
      }

      .cls-3 {
        fill: #383838;
      }
    </style>
  </defs>
  <path id="Фигура_2" data-name="Фигура 2" class="cls-1" d="M2048.89,438.829S1782.57,125.192,1618.02,265.84s-432.9-208.029-376.76,58.805-258.884,340.671-62.91,422.013,457.66,363.682,591.52,255.282,313.19-186.655,304.48-301.507S2048.89,438.829,2048.89,438.829Z"/>
  <path id="Фигура_3" data-name="Фигура 3" class="cls-2" d="M1302,718s-72.13-68.678-28-126,91.76-33.673,83,39S1302,718,1302,718Z"/>
  <path id="Фигура_3_копия" data-name="Фигура 3 копия" class="cls-2" d="M1386.87,332s71.88,68.664,27.9,125.975-91.44,33.667-82.71-38.992S1386.87,332,1386.87,332Z"/>
  <path id="Фигура_4" data-name="Фигура 4" class="cls-3" d="M1431,613s0.9-67.381,20-75,26,61,26,61Z"/>
  <path id="Фигура_5" data-name="Фигура 5" class="cls-4" d="M1260,612c4.19,5.768,100,59,100,59l-86-85S1255.81,606.232,1260,612Z"/>
  <path id="Фигура_5_копия" data-name="Фигура 5 копия" class="cls-4" d="M1332,394c4.19,5.768,100,59,100,59l-86-85S1327.81,388.232,1332,394Z"/>
  <path id="Фигура_6" data-name="Фигура 6" class="cls-4" d="M713.8,1032.69S497.517,617.776,435.23,746.33s71.264,278.5,129.436,373.8S713.8,1032.69,713.8,1032.69Z"/>
</svg>
